<svg width="22" height="22" viewBox="0 0 22 22" fill="none" xmlns="http://www.w3.org/2000/svg">
<rect width="22" height="22" rx="6" fill="#324793"/>
<path d="M15.5705 5.28183C15.8141 5.02703 16.1382 4.88616 16.4745 4.88896C16.8108 4.89175 17.1329 5.03799 17.3729 5.29682C17.613 5.55564 17.7521 5.90681 17.761 6.27622C17.7699 6.64563 17.6478 7.00438 17.4206 7.27679L10.5217 16.7576C10.403 16.898 10.2599 17.0106 10.1007 17.0888C9.94154 17.1671 9.76966 17.2092 9.59534 17.2127C9.42101 17.2163 9.24783 17.1812 9.08614 17.1095C8.92445 17.0378 8.77758 16.931 8.6543 16.7956L4.07924 11.7683C3.95183 11.6378 3.84964 11.4805 3.77877 11.3057C3.70789 11.1309 3.66978 10.9422 3.66671 10.7509C3.66363 10.5596 3.69566 10.3695 3.76089 10.1921C3.82611 10.0146 3.92318 9.85347 4.04632 9.71815C4.16946 9.58284 4.31615 9.47617 4.47762 9.4045C4.63909 9.33283 4.81205 9.29764 4.98617 9.30101C5.16029 9.30439 5.332 9.34627 5.49108 9.42415C5.65015 9.50203 5.79331 9.61432 5.91203 9.75433L9.53266 13.7309L15.5376 5.32363C15.5484 5.309 15.56 5.29505 15.5722 5.28183H15.5705Z" fill="white"/>
</svg>
