<svg width="40" height="40" viewBox="0 0 40 40" fill="none" xmlns="http://www.w3.org/2000/svg">
<path d="M27.506 0C35.18 0 40 4.784 40 12.506V17.644C40 18.478 39.322 19.156 38.488 19.156H38.47V19.12C37.626 19.12 36.942 18.438 36.94 17.594V12.506C36.94 6.4 33.6 3.06 27.512 3.06H12.512C6.42 3.06 3.06 6.42 3.06 12.506V27.506C3.06 33.574 6.42 36.934 12.506 36.934H27.506C33.592 36.934 36.934 33.574 36.934 27.506C36.934 26.662 37.618 25.976 38.464 25.976C39.31 25.976 39.994 26.662 39.994 27.506C40 35.216 35.216 40 27.512 40H12.506C4.784 40 0 35.216 0 27.512V12.512C0 4.784 4.784 0 12.506 0H27.506ZM26.0592 14.193C26.6452 13.607 27.5952 13.607 28.1812 14.193C28.7672 14.779 28.7672 15.729 28.1812 16.315L18.6872 25.809C18.4052 26.089 18.0232 26.247 17.6272 26.247C17.2272 26.247 16.8472 26.089 16.5652 25.809L11.8192 21.061C11.2332 20.475 11.2332 19.525 11.8192 18.939C12.4052 18.353 13.3552 18.353 13.9412 18.939L17.6272 22.627L26.0592 14.193Z" fill="#BCCBFF"/>
</svg>
